<svg width="24" height="24" viewBox="0 0 24 24">
<g clip-path="url(#clip0_426_13059)">
<path fill-rule="evenodd" clip-rule="evenodd" d="M0 12C0 5.3726 5.3726 0 12 0C18.6274 0 24 5.3726 24 12C24 18.6274 18.6274 24 12 24C5.3726 24 0 18.6274 0 12ZM12.0006 5.6C10.2624 5.6 10.0443 5.6076 9.36165 5.63865C8.6803 5.66985 8.21525 5.77775 7.8083 5.936C7.38735 6.09945 7.0303 6.31815 6.67455 6.674C6.31855 7.02975 6.09985 7.3868 5.93585 7.8076C5.7772 8.2147 5.6692 8.6799 5.63855 9.36095C5.608 10.0437 5.6 10.2619 5.6 12C5.6 13.7382 5.60775 13.9557 5.63865 14.6383C5.67 15.3197 5.77785 15.7847 5.936 16.1917C6.0996 16.6126 6.31825 16.9697 6.67415 17.3255C7.02975 17.6815 7.3868 17.9006 7.8075 18.0641C8.2147 18.2224 8.6799 18.3303 9.3611 18.3615C10.0438 18.3926 10.2618 18.4002 11.9998 18.4002C13.7381 18.4002 13.9556 18.3926 14.6383 18.3615C15.3196 18.3303 15.7851 18.2224 16.1924 18.0641C16.6132 17.9006 16.9697 17.6815 17.3253 17.3255C17.6813 16.9697 17.9 16.6127 18.064 16.1919C18.2213 15.7848 18.3293 15.3196 18.3613 14.6385C18.392 13.9558 18.4 13.7382 18.4 12C18.4 10.2619 18.392 10.0438 18.3613 9.3611C18.3293 8.67975 18.2213 8.2147 18.064 7.80775C17.9 7.3868 17.6813 7.02975 17.3253 6.674C16.9693 6.318 16.6133 6.09935 16.192 5.936C15.7839 5.77775 15.3186 5.66985 14.6373 5.63865C13.9546 5.6076 13.7373 5.6 11.9986 5.6H12.0006Z"/>
<path fill-rule="evenodd" clip-rule="evenodd" d="M11.4265 6.7516C11.5969 6.75135 11.787 6.7516 12.0006 6.7516C13.7094 6.7516 13.912 6.75775 14.5868 6.7884C15.2108 6.81695 15.5495 6.9212 15.7751 7.0088C16.0737 7.1248 16.2867 7.26345 16.5105 7.48745C16.7345 7.71145 16.8732 7.9248 16.9895 8.2235C17.0771 8.4488 17.1815 8.7875 17.2099 9.4115C17.2405 10.0861 17.2472 10.2889 17.2472 11.9969C17.2472 13.7048 17.2405 13.9076 17.2099 14.5822C17.1813 15.2062 17.0771 15.5449 16.9895 15.7702C16.8735 16.0689 16.7345 16.2816 16.5105 16.5055C16.2865 16.7295 16.0739 16.8681 15.7751 16.9841C15.5497 17.0721 15.2108 17.1761 14.5868 17.2046C13.9121 17.2353 13.7094 17.242 12.0006 17.242C10.2917 17.242 10.0891 17.2353 9.41446 17.2046C8.79046 17.1758 8.45176 17.0716 8.22606 16.984C7.92736 16.868 7.71401 16.7293 7.49001 16.5053C7.26601 16.2813 7.12736 16.0685 7.01111 15.7697C6.92351 15.5444 6.81911 15.2057 6.79071 14.5817C6.76001 13.907 6.75391 13.7043 6.75391 11.9952C6.75391 10.2861 6.76001 10.0845 6.79071 9.4099C6.81921 8.7859 6.92351 8.4472 7.01111 8.2216C7.12711 7.92295 7.26601 7.7096 7.49001 7.4856C7.71401 7.2616 7.92736 7.12295 8.22606 7.00665C8.45166 6.91865 8.79046 6.81465 9.41446 6.786C10.0049 6.75935 10.2337 6.75135 11.4265 6.75V6.7516ZM15.4169 7.81425C14.9929 7.81425 14.6489 8.1579 14.6489 8.582C14.6489 9.006 14.9929 9.35 15.4169 9.35C15.8409 9.35 16.1849 9.006 16.1849 8.582C16.1849 8.158 15.8409 7.81425 15.4169 7.81425ZM12.0006 8.7116C10.1855 8.7116 8.71391 10.1832 8.71391 11.9983C8.71391 13.8134 10.1855 15.2844 12.0006 15.2844C13.8157 15.2844 15.2868 13.8134 15.2868 11.9983C15.2868 10.1832 13.8157 8.7116 12.0006 8.7116Z"/>
<path fill-rule="evenodd" clip-rule="evenodd" d="M12.0005 9.86719C13.1787 9.86719 14.1339 10.8223 14.1339 12.0005C14.1339 13.1787 13.1787 14.1339 12.0005 14.1339C10.8222 14.1339 9.86719 13.1787 9.86719 12.0005C9.86719 10.8223 10.8222 9.86719 12.0005 9.86719Z"/>
</g>
<defs>
<clipPath id="clip0_426_13059">
<rect width="24" height="24"/>
</clipPath>
</defs>
</svg>
