<svg fill="#fff" width="45" height="29" viewBox="0 0 45 29" xmlns="http://www.w3.org/2000/svg">
 <path d="M65.5031 710.063L77.1469 724.619L71.325 705.694C69.8687 696.959 59.6813 707.15 65.5031 710.063ZM78.6031 701.328C82.9687 708.606 87.3375 715.884 87.3375 723.163C87.3375 733.353 96.0719 737.719 103.347 740.628C93.1562 728.984 87.3344 696.959 78.6031 701.328ZM637.553 84.1531C662.297 84.1531 685.587 81.2406 711.791 87.0625C775.837 103.075 829.694 135.097 866.084 180.222L967.978 343.25C972.344 384.006 981.078 429.131 979.622 478.622C989.813 478.622 988.356 464.066 1000 461.153C988.356 490.266 982.531 526.656 979.622 568.869C972.344 545.578 979.622 510.644 981.078 491.722C970.888 507.734 965.066 496.088 965.066 488.809C966.522 477.166 960.7 478.619 956.331 474.253C940.319 459.697 930.131 443.684 918.487 418.941C925.766 400.019 927.222 372.363 903.931 357.806C896.653 353.441 887.919 346.163 883.553 334.516C877.731 318.503 867.541 299.581 870.45 274.838C871.906 267.559 848.616 290.85 835.516 280.659C778.747 241.359 721.978 196.234 653.566 158.387C617.175 158.387 590.975 145.287 577.875 129.275C566.231 114.719 574.963 95.7969 592.431 94.3406C602.622 94.3406 614.266 91.4281 623 97.2531C624.456 91.4313 630.278 84.1531 637.553 84.1531ZM493.45 50.6719L496.362 52.1281C510.919 55.0406 518.197 75.4188 534.206 68.1406C534.206 78.3313 535.662 88.5188 532.75 95.7969C528.384 107.441 515.281 107.441 505.094 107.441C407.569 101.619 350.8 142.375 291.122 177.309C275.109 187.5 257.644 194.778 244.541 207.878C181.95 266.103 113.538 319.959 97.525 427.675L84.425 547.034C82.9688 560.134 68.4125 573.234 71.325 589.247L81.5125 660.572C71.3219 650.381 65.5 663.484 68.4125 669.306C69.8688 673.672 75.6906 688.228 84.425 675.128C96.0688 696.963 107.716 739.175 123.725 758.097C173.216 816.322 237.263 868.722 289.666 921.125C302.766 918.213 312.956 918.212 315.866 909.478C320.231 918.212 311.5 926.947 304.222 928.403C327.512 942.959 353.712 956.059 388.647 958.969C433.772 961.881 475.984 969.159 515.284 979.35C535.663 973.528 556.041 970.616 577.875 969.159C585.153 969.159 589.519 957.516 598.253 954.603L599.709 940.047C608.444 953.147 606.988 935.681 601.166 926.947C611.356 935.681 614.266 942.959 618.631 948.781C618.631 944.416 630.275 928.403 630.278 947.325L633.187 928.403C637.553 925.491 639.009 944.416 643.378 931.312C647.744 918.212 656.478 928.4 665.212 924.034C662.3 929.856 663.756 941.503 673.944 934.225L685.591 924.034C692.869 941.503 704.513 934.225 710.334 931.312C774.381 890.556 838.428 842.522 899.562 794.487L898.106 813.409L905.384 790.119C912.662 797.397 918.484 791.575 921.397 787.209C930.131 772.653 941.775 758.097 960.7 744.997C937.409 807.588 909.753 857.078 874.819 897.834L860.262 915.303C860.262 925.494 857.35 938.594 845.706 940.047C839.884 941.503 828.238 937.134 819.506 945.869C815.141 951.691 829.697 963.337 818.05 954.603C807.859 947.325 797.672 954.603 786.025 957.516C777.291 960.428 791.847 969.159 794.759 974.981C797.672 980.803 800.581 986.625 799.128 993.906L783.116 976.437C764.194 986.628 752.547 1005.55 736.534 1020.11C729.256 1025.93 732.169 1036.12 732.169 1044.85C721.978 1044.85 710.334 1041.94 704.513 1047.76C700.147 1053.58 701.6 1062.32 701.6 1071.05C687.044 1069.6 685.588 1047.76 672.491 1052.13C659.391 1055.04 644.834 1056.49 633.187 1063.77C641.922 1081.24 618.631 1071.05 621.544 1073.96C599.709 1060.86 580.788 1050.67 557.497 1059.41C508.006 1043.39 446.872 1050.67 401.747 1056.5C401.747 1049.22 403.203 1041.94 400.291 1040.48C397.378 1047.76 388.647 1044.85 390.103 1044.85C362.447 1025.93 334.791 1014.28 305.678 998.272C279.478 1001.18 254.731 988.081 247.453 980.803C227.075 961.881 203.784 972.069 184.862 967.703C144.106 957.513 129.55 915.3 125.181 886.191C122.269 871.634 110.625 865.812 106.259 867.266C87.3375 806.131 58.225 750.819 34.9344 694.05C29.1125 679.494 30.5687 664.938 30.5687 648.925C37.8469 651.838 45.125 650.381 43.6687 640.194C36.3906 592.159 18.925 555.769 0 520.834C10.1906 471.344 11.6437 413.119 34.9344 369.45C55.3125 330.15 93.1594 309.769 119.359 276.291C128.094 264.647 128.094 248.634 136.828 238.447C165.941 209.334 195.053 178.766 227.075 152.566C241.631 140.922 259.097 152.566 280.931 148.2C288.209 122 317.322 98.7094 344.978 105.988C356.622 108.9 379.913 78.3313 387.191 75.4188C398.834 71.0531 393.012 87.0625 393.012 97.2531C420.669 75.4188 458.516 63.775 493.45 50.6719Z"/>
<path d="M527.134 281.25C566.759 281.25 607.82 289.864 650.316 307.092L639.118 373.421L627.058 376.866C610.404 364.232 592.716 354.47 573.995 347.578C555.389 340.687 536.897 337.242 518.52 337.242C497.272 337.242 478.781 341.549 463.046 350.163C447.196 358.777 435.136 369.975 426.866 383.758C418.482 397.54 414.29 411.897 414.29 426.828C414.29 442.333 419.056 455.944 428.589 467.659C438.007 479.489 449.895 489.711 464.252 498.325C478.608 506.939 498.134 517.276 522.827 529.336C553.838 543.693 578.819 557.016 597.77 569.305C616.721 581.709 632.973 597.387 646.526 616.338C659.964 635.289 666.683 658.26 666.683 685.251C666.683 713.964 658.93 740.381 643.425 764.5C627.919 788.62 606.097 807.858 577.957 822.215C549.818 836.572 517.659 843.75 481.48 843.75C457.36 843.75 432.265 840.419 406.193 833.758C380.006 827.211 355.714 817.621 333.317 804.987L341.931 734.351L351.407 730.044C371.507 749.569 393.788 764.041 418.252 773.459C442.601 782.992 465.974 787.758 488.371 787.758C510.193 787.758 529.604 783.451 546.602 774.837C563.486 766.223 576.407 754.738 585.366 740.381C594.209 726.024 598.631 710.806 598.631 694.726C598.631 670.607 589.443 651.196 571.066 636.495C552.69 621.908 524.837 606.001 487.51 588.773C457.073 573.842 432.667 560.461 414.29 548.631C395.913 536.916 380.121 521.698 366.912 502.977C353.704 484.37 347.1 461.572 347.1 434.581C347.1 406.441 354.738 380.599 370.013 357.054C385.174 333.509 406.422 314.96 433.758 301.407C460.978 287.969 492.104 281.25 527.134 281.25Z"/>
</svg>