<svg width="751" height="138" viewBox="0 0 751 138" fill="none" xmlns="http://www.w3.org/2000/svg">
<g clip-path="url(#clip0_909_4009)">
<path d="M55.0625 73.6875H31.6875L31.5625 60.0625H50.875C54.2917 60.0625 57.0625 59.6458 59.1875 58.8125C61.3542 57.9792 62.9375 56.7708 63.9375 55.1875C64.9375 53.5625 65.4375 51.5625 65.4375 49.1875C65.4375 46.4792 64.9375 44.2917 63.9375 42.625C62.9375 40.9583 61.3542 39.75 59.1875 39C57.0625 38.2083 54.3125 37.8125 50.9375 37.8125H39.0625V113H18.6875V22H50.9375C56.3958 22 61.2708 22.5 65.5625 23.5C69.8542 24.5 73.5 26.0417 76.5 28.125C79.5417 30.2083 81.8542 32.8125 83.4375 35.9375C85.0208 39.0625 85.8125 42.75 85.8125 47C85.8125 50.7083 84.9792 54.1667 83.3125 57.375C81.6875 60.5833 79.0625 63.1875 75.4375 65.1875C71.8125 67.1875 66.9583 68.2708 60.875 68.4375L55.0625 73.6875ZM54.25 113H26.5L33.875 97.25H54.25C57.375 97.25 59.9167 96.75 61.875 95.75C63.8333 94.75 65.2708 93.3958 66.1875 91.6875C67.1042 89.9792 67.5625 88.0625 67.5625 85.9375C67.5625 83.4375 67.125 81.2708 66.25 79.4375C65.4167 77.6042 64.0833 76.1875 62.25 75.1875C60.4583 74.1875 58.0625 73.6875 55.0625 73.6875H36.8125L36.9375 60.0625H59.25L64 65.4375C69.7917 65.3125 74.4167 66.25 77.875 68.25C81.375 70.2083 83.8958 72.7917 85.4375 76C86.9792 79.2083 87.75 82.6042 87.75 86.1875C87.75 92.1042 86.4792 97.0625 83.9375 101.062C81.3958 105.021 77.625 108 72.625 110C67.6667 112 61.5417 113 54.25 113ZM127 61.125V113H107.5V45.375H125.812L127 61.125ZM147.188 44.875L146.875 63.0625C146.042 62.9375 144.958 62.8333 143.625 62.75C142.292 62.625 141.146 62.5625 140.188 62.5625C137.688 62.5625 135.521 62.875 133.688 63.5C131.896 64.0833 130.396 64.9583 129.188 66.125C128.021 67.2917 127.146 68.75 126.562 70.5C125.979 72.2083 125.688 74.1875 125.688 76.4375L122 74.625C122 70.1667 122.438 66.0833 123.312 62.375C124.188 58.6667 125.458 55.4583 127.125 52.75C128.792 50 130.833 47.875 133.25 46.375C135.667 44.875 138.417 44.125 141.5 44.125C142.5 44.125 143.521 44.1875 144.562 44.3125C145.604 44.4375 146.479 44.625 147.188 44.875ZM193.312 114.25C187.938 114.25 183.125 113.396 178.875 111.688C174.625 109.979 171.021 107.625 168.062 104.625C165.146 101.583 162.917 98.0833 161.375 94.125C159.833 90.1667 159.062 85.9375 159.062 81.4375V79.0625C159.062 74.0208 159.771 69.375 161.188 65.125C162.604 60.875 164.667 57.1875 167.375 54.0625C170.125 50.8958 173.5 48.4583 177.5 46.75C181.5 45 186.062 44.125 191.188 44.125C195.979 44.125 200.25 44.9167 204 46.5C207.75 48.0417 210.917 50.2708 213.5 53.1875C216.083 56.0625 218.042 59.5417 219.375 63.625C220.75 67.6667 221.438 72.2083 221.438 77.25V85.25H166.938V72.6875H202.312V71.1875C202.312 68.8125 201.875 66.7292 201 64.9375C200.167 63.1458 198.917 61.7708 197.25 60.8125C195.625 59.8125 193.562 59.3125 191.062 59.3125C188.688 59.3125 186.708 59.8125 185.125 60.8125C183.542 61.8125 182.271 63.2292 181.312 65.0625C180.396 66.8542 179.729 68.9583 179.312 71.375C178.896 73.75 178.688 76.3125 178.688 79.0625V81.4375C178.688 84.0625 179.042 86.4583 179.75 88.625C180.458 90.7917 181.5 92.6458 182.875 94.1875C184.25 95.7292 185.917 96.9375 187.875 97.8125C189.833 98.6875 192.062 99.125 194.562 99.125C197.646 99.125 200.583 98.5417 203.375 97.375C206.167 96.1667 208.583 94.2917 210.625 91.75L219.75 102.188C218.375 104.188 216.438 106.125 213.938 108C211.479 109.833 208.521 111.333 205.062 112.5C201.604 113.667 197.688 114.25 193.312 114.25ZM270.312 114.25C264.938 114.25 260.125 113.396 255.875 111.688C251.625 109.979 248.021 107.625 245.062 104.625C242.146 101.583 239.917 98.0833 238.375 94.125C236.833 90.1667 236.062 85.9375 236.062 81.4375V79.0625C236.062 74.0208 236.771 69.375 238.188 65.125C239.604 60.875 241.667 57.1875 244.375 54.0625C247.125 50.8958 250.5 48.4583 254.5 46.75C258.5 45 263.062 44.125 268.188 44.125C272.979 44.125 277.25 44.9167 281 46.5C284.75 48.0417 287.917 50.2708 290.5 53.1875C293.083 56.0625 295.042 59.5417 296.375 63.625C297.75 67.6667 298.438 72.2083 298.438 77.25V85.25H243.938V72.6875H279.312V71.1875C279.312 68.8125 278.875 66.7292 278 64.9375C277.167 63.1458 275.917 61.7708 274.25 60.8125C272.625 59.8125 270.562 59.3125 268.062 59.3125C265.688 59.3125 263.708 59.8125 262.125 60.8125C260.542 61.8125 259.271 63.2292 258.312 65.0625C257.396 66.8542 256.729 68.9583 256.312 71.375C255.896 73.75 255.688 76.3125 255.688 79.0625V81.4375C255.688 84.0625 256.042 86.4583 256.75 88.625C257.458 90.7917 258.5 92.6458 259.875 94.1875C261.25 95.7292 262.917 96.9375 264.875 97.8125C266.833 98.6875 269.062 99.125 271.562 99.125C274.646 99.125 277.583 98.5417 280.375 97.375C283.167 96.1667 285.583 94.2917 287.625 91.75L296.75 102.188C295.375 104.188 293.438 106.125 290.938 108C288.479 109.833 285.521 111.333 282.062 112.5C278.604 113.667 274.688 114.25 270.312 114.25ZM370.125 97.8125V113H318.25V97.8125H370.125ZM369.312 56.25L326.625 113H313.375V101.75L355.938 45.375H369.312V56.25ZM362.625 45.375V60.5625H314.5V45.375H362.625ZM419.438 114.25C414.062 114.25 409.25 113.396 405 111.688C400.75 109.979 397.146 107.625 394.188 104.625C391.271 101.583 389.042 98.0833 387.5 94.125C385.958 90.1667 385.188 85.9375 385.188 81.4375V79.0625C385.188 74.0208 385.896 69.375 387.312 65.125C388.729 60.875 390.792 57.1875 393.5 54.0625C396.25 50.8958 399.625 48.4583 403.625 46.75C407.625 45 412.188 44.125 417.312 44.125C422.104 44.125 426.375 44.9167 430.125 46.5C433.875 48.0417 437.042 50.2708 439.625 53.1875C442.208 56.0625 444.167 59.5417 445.5 63.625C446.875 67.6667 447.562 72.2083 447.562 77.25V85.25H393.062V72.6875H428.438V71.1875C428.438 68.8125 428 66.7292 427.125 64.9375C426.292 63.1458 425.042 61.7708 423.375 60.8125C421.75 59.8125 419.688 59.3125 417.188 59.3125C414.812 59.3125 412.833 59.8125 411.25 60.8125C409.667 61.8125 408.396 63.2292 407.438 65.0625C406.521 66.8542 405.854 68.9583 405.438 71.375C405.021 73.75 404.812 76.3125 404.812 79.0625V81.4375C404.812 84.0625 405.167 86.4583 405.875 88.625C406.583 90.7917 407.625 92.6458 409 94.1875C410.375 95.7292 412.042 96.9375 414 97.8125C415.958 98.6875 418.188 99.125 420.688 99.125C423.771 99.125 426.708 98.5417 429.5 97.375C432.292 96.1667 434.708 94.2917 436.75 91.75L445.875 102.188C444.5 104.188 442.562 106.125 440.062 108C437.604 109.833 434.646 111.333 431.188 112.5C427.729 113.667 423.812 114.25 419.438 114.25ZM542.75 39.3125L519.25 113H497.5L531.188 22H544.938L542.75 39.3125ZM562.25 113L538.688 39.3125L536.25 22H550.188L584 113H562.25ZM561.25 79.125V94.875H513.812V79.125H561.25ZM615.125 58.375V139H595.625V45.375H613.812L615.125 58.375ZM657.312 78.4375V79.75C657.312 84.6667 656.75 89.2292 655.625 93.4375C654.5 97.6042 652.812 101.25 650.562 104.375C648.354 107.5 645.625 109.938 642.375 111.688C639.125 113.396 635.354 114.25 631.062 114.25C626.979 114.25 623.438 113.396 620.438 111.688C617.479 109.938 614.979 107.521 612.938 104.438C610.938 101.312 609.312 97.75 608.062 93.75C606.854 89.7083 605.917 85.3958 605.25 80.8125V78.25C605.917 73.375 606.875 68.8542 608.125 64.6875C609.375 60.5208 611 56.9167 613 53.875C615 50.7917 617.479 48.3958 620.438 46.6875C623.396 44.9792 626.917 44.125 631 44.125C635.25 44.125 639.021 44.9375 642.312 46.5625C645.604 48.1875 648.354 50.5208 650.562 53.5625C652.812 56.5625 654.5 60.1667 655.625 64.375C656.75 68.5833 657.312 73.2708 657.312 78.4375ZM637.75 79.75V78.4375C637.75 75.6875 637.542 73.1667 637.125 70.875C636.708 68.5417 636.042 66.5208 635.125 64.8125C634.208 63.0625 633 61.7083 631.5 60.75C630 59.7917 628.167 59.3125 626 59.3125C623.667 59.3125 621.688 59.6875 620.062 60.4375C618.438 61.1875 617.125 62.2917 616.125 63.75C615.125 65.1667 614.396 66.9167 613.938 69C613.521 71.0833 613.292 73.4583 613.25 76.125V83C613.292 86.125 613.729 88.9167 614.562 91.375C615.438 93.7917 616.792 95.6875 618.625 97.0625C620.5 98.3958 623 99.0625 626.125 99.0625C628.333 99.0625 630.167 98.5833 631.625 97.625C633.125 96.625 634.312 95.2292 635.188 93.4375C636.104 91.6458 636.75 89.5833 637.125 87.25C637.542 84.9167 637.75 82.4167 637.75 79.75ZM694.75 58.375V139H675.25V45.375H693.438L694.75 58.375ZM736.938 78.4375V79.75C736.938 84.6667 736.375 89.2292 735.25 93.4375C734.125 97.6042 732.438 101.25 730.188 104.375C727.979 107.5 725.25 109.938 722 111.688C718.75 113.396 714.979 114.25 710.688 114.25C706.604 114.25 703.062 113.396 700.062 111.688C697.104 109.938 694.604 107.521 692.562 104.438C690.562 101.312 688.938 97.75 687.688 93.75C686.479 89.7083 685.542 85.3958 684.875 80.8125V78.25C685.542 73.375 686.5 68.8542 687.75 64.6875C689 60.5208 690.625 56.9167 692.625 53.875C694.625 50.7917 697.104 48.3958 700.062 46.6875C703.021 44.9792 706.542 44.125 710.625 44.125C714.875 44.125 718.646 44.9375 721.938 46.5625C725.229 48.1875 727.979 50.5208 730.188 53.5625C732.438 56.5625 734.125 60.1667 735.25 64.375C736.375 68.5833 736.938 73.2708 736.938 78.4375ZM717.375 79.75V78.4375C717.375 75.6875 717.167 73.1667 716.75 70.875C716.333 68.5417 715.667 66.5208 714.75 64.8125C713.833 63.0625 712.625 61.7083 711.125 60.75C709.625 59.7917 707.792 59.3125 705.625 59.3125C703.292 59.3125 701.312 59.6875 699.688 60.4375C698.062 61.1875 696.75 62.2917 695.75 63.75C694.75 65.1667 694.021 66.9167 693.562 69C693.146 71.0833 692.917 73.4583 692.875 76.125V83C692.917 86.125 693.354 88.9167 694.188 91.375C695.062 93.7917 696.417 95.6875 698.25 97.0625C700.125 98.3958 702.625 99.0625 705.75 99.0625C707.958 99.0625 709.792 98.5833 711.25 97.625C712.75 96.625 713.938 95.2292 714.812 93.4375C715.729 91.6458 716.375 89.5833 716.75 87.25C717.167 84.9167 717.375 82.4167 717.375 79.75Z" fill="black"/>
</g>
<defs>
<clipPath id="clip0_909_4009">
<rect width="750" height="137" fill="white" transform="translate(0.5 0.5)"/>
</clipPath>
</defs>
</svg>
